<?xml version="1.0" standalone="no"?>
<!DOCTYPE svg PUBLIC "-//W3C//DTD SVG 20010904//EN"
 "http://www.w3.org/TR/2001/REC-SVG-20010904/DTD/svg10.dtd">
<svg version="1.0" xmlns="http://www.w3.org/2000/svg"
 width="700.000000pt" height="700.000000pt" viewBox="0 0 700.000000 700.000000"
 preserveAspectRatio="xMidYMid meet">
<metadata>
Created by potrace 1.14, written by Peter Selinger 2001-2017
</metadata>
<g transform="translate(0.000000,700.000000) scale(0.100000,-0.100000)"
fill="#000000" stroke="none">
<path d="M3280 6994 c-19 -2 -84 -9 -145 -14 -639 -62 -1264 -315 -1795 -726
-149 -115 -481 -446 -595 -594 -410 -532 -653 -1132 -727 -1795 -17 -155 -17
-575 0 -730 75 -673 332 -1300 748 -1820 114 -143 339 -372 484 -494 537 -451
1163 -717 1885 -803 142 -17 586 -17 730 0 682 79 1268 318 1802 734 138 107
389 351 512 498 451 538 717 1162 803 1885 16 139 16 595 0 730 -77 629 -275
1158 -620 1649 -234 333 -577 668 -917 896 -460 308 -968 495 -1535 566 -117
15 -552 27 -630 18z m-1512 -1391 c53 -68 52 -61 52 -407 0 -345 5 -396 47
-480 55 -109 199 -215 333 -246 30 -7 60 -14 67 -16 9 -2 8 -14 -3 -48 -10
-29 -14 -70 -12 -111 l3 -66 -290 3 c-326 3 -317 1 -405 84 -57 54 -96 134
-110 230 -13 90 -13 688 0 779 22 151 112 270 229 301 25 7 49 13 53 13 3 1
20 -16 36 -36z m3608 7 c84 -36 150 -123 179 -237 21 -79 22 -802 1 -878 -29
-111 -89 -190 -178 -234 l-61 -31 -288 0 -288 0 6 68 c3 37 1 85 -6 106 -6 22
-9 41 -7 43 1 2 37 12 80 23 43 11 101 32 129 47 82 44 172 135 209 211 l33
67 5 370 5 371 40 52 c44 58 54 60 141 22z m-1150 -890 c131 -34 237 -92 325
-179 63 -63 80 -86 94 -133 17 -54 18 -66 3 -198 -8 -77 -17 -143 -20 -145 -7
-8 -394 -35 -493 -35 -49 0 -168 -5 -264 -12 l-173 -12 -19 23 c-11 13 -18 25
-17 27 2 1 38 -3 81 -9 76 -11 106 -6 114 19 2 5 -17 19 -40 32 -24 13 -66 43
-93 67 l-49 44 42 1 c23 0 44 4 47 9 4 5 -30 39 -75 76 -44 37 -83 73 -86 81
-3 8 -10 14 -17 14 -15 0 -176 -155 -176 -170 0 -8 15 -11 45 -8 l44 3 -37
-38 c-20 -22 -61 -52 -89 -69 -65 -37 -70 -44 -42 -59 22 -11 101 -8 159 7
l25 7 -22 -23 c-19 -20 -44 -26 -205 -46 -213 -27 -539 -85 -618 -111 -68 -22
-147 -93 -156 -142 -6 -28 -10 -32 -29 -27 -14 4 -28 0 -35 -9 -7 -8 -11 -15
-9 -16 2 0 14 -2 26 -3 26 -3 89 -43 155 -98 58 -49 162 -84 296 -99 53 -6
160 -28 237 -49 77 -21 205 -54 285 -73 195 -47 317 -100 389 -170 31 -30 65
-59 75 -64 17 -9 14 -13 -26 -37 -65 -38 -164 -70 -424 -136 -297 -76 -810
-180 -888 -180 -3 0 -6 -4 -6 -10 0 -25 174 -1 505 70 203 43 519 120 643 156
148 43 258 111 276 171 10 32 -17 78 -58 97 -39 18 -233 71 -561 151 -121 29
-240 61 -265 70 -25 9 -97 22 -160 30 -138 16 -233 44 -286 85 -21 16 -56 42
-76 57 -26 19 -38 36 -38 53 0 56 68 124 150 149 98 29 590 111 670 111 l35
-1 -47 -27 c-50 -28 -59 -45 -32 -60 11 -6 -13 -11 -74 -16 -165 -12 -262 -61
-262 -130 0 -77 53 -105 285 -151 141 -29 213 -38 368 -45 204 -10 578 -59
799 -106 68 -14 124 -27 126 -29 2 -2 -12 -151 -31 -332 -39 -361 -50 -407
-117 -491 -58 -74 -102 -104 -311 -210 -393 -199 -824 -370 -1276 -506 l-83
-24 0 316 0 315 -65 68 c-76 79 -111 149 -126 252 -5 40 -50 360 -100 712 -53
372 -87 646 -82 653 4 7 32 22 61 31 29 10 68 33 86 50 26 25 358 191 383 191
12 0 -31 -41 -64 -61 -48 -30 -43 -49 13 -49 l46 0 -19 -32 c-11 -18 -38 -46
-61 -61 -54 -36 -45 -51 26 -44 l55 6 -27 -28 c-15 -16 -43 -37 -62 -47 -41
-22 -44 -44 -6 -44 33 0 120 23 150 39 22 12 22 11 22 -64 0 -57 3 -76 13 -73
8 3 13 30 15 75 l3 70 42 -14 c44 -16 131 -13 148 4 7 7 -5 21 -33 43 -46 35
-84 78 -94 104 -5 13 2 16 37 16 49 0 66 8 66 30 0 38 142 236 192 269 l24 15
-7 -49 c-4 -28 -16 -70 -27 -94 -20 -46 -17 -70 6 -51 18 15 43 91 51 157 13
105 44 109 207 30 125 -60 169 -92 197 -146 11 -20 34 -53 52 -73 38 -43 183
-148 204 -148 28 0 13 20 -40 54 -30 19 -56 39 -60 44 -6 10 46 84 97 140 47
49 88 45 168 -17 44 -34 83 -54 122 -64 43 -11 74 -29 115 -64 73 -63 138
-113 146 -113 24 0 -6 36 -80 95 -98 80 -132 101 -190 115 -23 6 -72 33 -109
60 -110 81 -154 69 -250 -65 -60 -84 -53 -88 -178 85 -27 38 -52 55 -157 107
-130 66 -173 79 -214 69 -14 -3 -63 -42 -109 -86 -70 -66 -87 -77 -96 -66 -7
8 -27 21 -46 30 -33 16 -37 15 -96 -9 -34 -13 -65 -23 -69 -20 -4 3 -13 18
-20 35 -17 40 -31 34 -49 -22 -13 -42 -19 -48 -60 -63 -90 -34 -376 -176 -401
-200 -14 -14 -51 -33 -82 -43 l-56 -19 -6 36 c-20 125 8 206 105 295 96 89
228 158 373 196 65 17 121 19 697 19 596 1 630 0 705 -19z m-1032 -221 c14
-11 26 -24 26 -28 0 -18 -83 -151 -94 -151 -6 0 -27 15 -46 33 l-35 32 33 3
c17 2 32 7 32 12 0 6 -17 25 -37 44 l-37 34 45 20 c57 26 80 27 113 1z m-170
-46 l37 -42 -27 2 c-42 3 -39 -16 10 -67 l45 -46 -34 0 c-27 0 -35 -4 -35 -18
0 -26 56 -107 93 -137 l32 -25 -40 0 c-22 0 -59 9 -83 20 l-43 20 -47 -25
c-66 -35 -80 -32 -43 10 17 20 31 47 31 60 0 27 -6 30 -44 15 -24 -9 -24 -8 9
36 44 58 47 94 7 94 l-28 0 43 46 c23 26 48 62 55 80 7 19 15 31 19 26 3 -4
23 -26 43 -49z m622 -162 l58 -53 -42 7 c-33 5 -42 4 -42 -7 0 -18 78 -98 136
-140 24 -17 42 -33 41 -35 -2 -2 -43 4 -90 14 -48 9 -90 14 -93 11 -3 -4 10
-31 29 -61 25 -39 53 -66 96 -92 34 -21 61 -40 61 -43 0 -5 -104 5 -152 15
-20 4 -28 1 -28 -9 0 -22 50 -65 121 -103 l64 -35 -55 1 c-30 0 -80 8 -110 18
-49 15 -60 15 -95 3 -22 -8 -71 -16 -110 -19 l-70 -4 65 35 c60 34 130 91 130
107 0 4 -47 5 -105 3 -58 -3 -105 -4 -105 -1 0 2 34 25 75 51 79 50 141 114
126 129 -6 6 -43 3 -93 -6 -46 -8 -84 -14 -86 -12 -2 1 12 13 30 25 50 34 148
132 148 148 0 11 -10 12 -42 7 l-43 -7 55 56 c30 31 57 55 61 54 3 -2 33 -27
65 -57z m-1407 -157 c29 -6 31 -9 31 -54 0 -81 -29 -217 -64 -305 -44 -109
-107 -203 -193 -288 -89 -87 -149 -131 -249 -178 -128 -61 -240 -83 -413 -80
l-54 1 6 93 c27 399 326 729 726 801 85 16 162 19 210 10z m2736 -9 c402 -70
725 -438 725 -826 l0 -69 -47 -1 c-167 -5 -287 21 -428 91 -180 90 -309 218
-396 395 -55 113 -83 212 -93 332 -6 73 -4 82 11 86 39 10 145 6 228 -8z
m-345 -115 c0 -10 -8 -24 -17 -29 -43 -22 -277 -44 -535 -48 l-267 -5 -38 23
-38 24 55 7 c30 3 172 11 315 18 143 6 303 15 355 19 165 14 170 13 170 -9z
m-13 -97 c-3 -21 -16 -136 -28 -255 -14 -133 -27 -218 -33 -218 -6 0 -67 11
-135 25 -237 48 -597 95 -801 105 -160 7 -225 15 -363 44 -180 37 -226 56
-242 100 -12 35 0 54 52 83 39 22 88 31 288 53 55 6 109 13 120 16 l20 5 -20
-17 c-11 -9 -58 -34 -104 -56 -64 -30 -81 -42 -72 -51 15 -15 135 -21 189 -9
l42 10 0 -45 c0 -40 -2 -44 -15 -33 -21 18 -39 -1 -32 -32 5 -20 13 -24 43
-25 28 -1 38 3 41 18 6 20 19 25 25 9 2 -6 17 -8 36 -4 31 6 32 8 32 55 l0 48
78 -5 c80 -5 133 4 140 24 2 7 -5 15 -15 18 -48 17 -154 68 -164 80 -9 12 2
14 64 14 54 0 80 4 91 15 12 12 46 15 175 15 172 0 364 14 489 35 113 19 105
20 99 -22z m-992 -198 c0 -43 -19 -58 -28 -23 -6 21 -7 21 -27 3 -20 -18 -20
-18 -20 18 0 41 22 59 54 47 16 -6 21 -16 21 -45z m263 -467 c55 -21 77 -46
67 -78 -10 -32 -32 -24 -103 42 -37 34 -69 63 -72 66 -9 7 54 -10 108 -30z
m392 -1166 c0 -354 -4 -389 -56 -478 -33 -56 -130 -146 -190 -177 -118 -60
-138 -62 -524 -62 -316 0 -361 2 -415 18 -169 53 -291 163 -335 304 -34 110
-40 103 123 152 396 121 790 276 1147 453 129 64 238 117 243 117 4 1 7 -147
7 -327z"/>
<path d="M4347 4282 c-32 -33 -34 -46 -7 -39 34 9 25 -33 -10 -46 -16 -6 -30
-15 -30 -19 0 -14 20 -19 40 -8 16 9 20 8 20 -5 0 -8 -9 -15 -19 -15 -26 0
-51 -10 -51 -21 0 -5 16 -9 35 -9 24 0 35 -5 35 -15 0 -20 19 -19 27 1 4 10
13 14 29 10 25 -7 54 1 54 15 0 5 -9 9 -21 9 -25 0 -59 17 -59 31 0 6 8 5 21
-2 37 -19 45 6 10 30 -35 25 -45 59 -12 41 21 -11 42 5 25 19 -5 3 -21 16 -35
29 l-25 22 -27 -28z"/>
<path d="M2720 3765 c-42 -31 -50 -43 -50 -77 0 -18 5 -28 15 -28 10 0 15 10
15 29 0 22 9 35 40 56 22 15 40 32 40 36 0 16 -26 9 -60 -16z"/>
<path d="M2946 3613 c-14 -14 -3 -26 47 -49 63 -28 140 -45 158 -33 16 9 -18
25 -73 34 -20 3 -56 16 -81 30 -25 13 -48 21 -51 18z"/>
<path d="M3840 3441 c0 -33 61 -52 194 -61 67 -5 135 -14 151 -20 19 -7 32 -7
38 -1 6 6 8 13 5 16 -13 13 -149 35 -219 35 -61 0 -85 5 -123 25 -43 23 -46
23 -46 6z"/>
<path d="M3070 3391 c0 -6 5 -13 10 -16 26 -16 0 -35 -121 -85 -78 -33 -137
-63 -144 -75 -7 -11 -32 -53 -55 -93 -40 -71 -42 -73 -61 -56 -30 27 -33 10
-4 -25 l27 -31 293 0 294 0 21 31 c12 16 19 33 15 37 -4 4 -12 -1 -19 -11 -7
-9 -16 -17 -19 -17 -8 0 -180 283 -179 295 0 6 3 21 7 35 6 24 6 25 -10 5 -15
-19 -17 -19 -26 -2 -11 18 -29 23 -29 8z m-44 -189 c-89 -171 -82 -161 -100
-137 -8 11 -18 17 -22 12 -4 -4 -2 -13 4 -19 23 -23 11 -28 -78 -28 -49 0 -90
3 -90 8 0 4 23 45 50 92 l49 85 118 52 c65 28 121 52 124 52 4 1 -21 -52 -55
-117z m254 -162 c0 -46 -100 55 -137 138 -25 55 -26 56 -36 32 -44 -108 -97
-180 -131 -180 -18 0 -11 17 86 198 l50 93 84 -136 c46 -75 84 -140 84 -145z"/>
<path d="M4145 3170 c5 -21 2 -39 -10 -56 -19 -29 -12 -44 12 -28 25 16 37 62
24 90 -16 35 -34 31 -26 -6z"/>
<path d="M4125 2914 c-27 -41 -115 -76 -218 -85 -80 -8 -102 -15 -201 -63
-160 -78 -395 -166 -513 -191 -20 -4 -33 -13 -33 -22 0 -18 25 -14 175 34 133
42 294 107 406 163 57 29 99 43 138 47 l56 4 -40 -26 c-68 -44 -151 -84 -232
-110 -43 -14 -84 -28 -92 -31 -9 -3 -11 -8 -5 -14 25 -25 250 66 374 151 36
24 85 51 109 59 49 16 111 68 111 94 0 24 -15 20 -35 -10z"/>
<path d="M4122 3958 c3 -7 23 -14 47 -16 32 -2 42 0 39 10 -3 7 -23 14 -47 16
-32 2 -42 0 -39 -10z"/>
<path d="M4066 3784 c-7 -28 12 -61 21 -38 2 7 13 10 23 7 26 -7 26 18 2 40
-26 24 -39 21 -46 -9z"/>
<path d="M4430 3754 c-6 -14 -10 -32 -10 -40 0 -19 19 -18 26 1 6 14 8 13 20
-2 8 -12 16 -15 23 -8 7 7 4 21 -10 43 -25 39 -36 40 -49 6z"/>
<path d="M4294 3614 c-8 -20 -12 -44 -9 -53 6 -14 8 -14 21 3 8 11 14 26 14
33 0 18 15 16 31 -3 12 -14 61 -44 74 -44 3 0 5 7 5 15 0 8 -4 15 -10 15 -5 0
-27 16 -49 35 -21 19 -44 35 -50 35 -7 0 -19 -16 -27 -36z"/>
<path d="M3712 1865 c-14 -31 -16 -65 -3 -65 5 0 14 14 20 31 l11 31 37 -31
c35 -29 69 -42 61 -23 -7 17 -86 82 -100 82 -8 0 -20 -11 -26 -25z"/>
<path d="M3961 1709 c-14 -40 -14 -39 4 -39 8 0 15 8 15 18 0 14 4 13 19 -7
13 -17 20 -20 26 -11 8 12 -22 61 -42 67 -6 2 -16 -10 -22 -28z"/>
<path d="M3264 1665 c-3 -14 -3 -33 1 -42 6 -17 7 -17 16 -1 5 10 16 15 24 12
21 -9 19 19 -3 39 -25 23 -31 21 -38 -8z"/>
</g>
</svg>
